<?xml version="1.0" encoding="UTF-8" standalone="no"?>
<!-- Created with Inkscape (http://www.inkscape.org/) -->

<svg
   version="1.1"
   id="svg1"
   width="261.62399"
   height="183.36133"
   viewBox="0 0 261.62399 183.36133"
   sodipodi:docname="eta_logo.svg"
   inkscape:version="1.4.2 (f4327f4, 2025-05-13)"
   xmlns:inkscape="http://www.inkscape.org/namespaces/inkscape"
   xmlns:sodipodi="http://sodipodi.sourceforge.net/DTD/sodipodi-0.dtd"
   xmlns="http://www.w3.org/2000/svg"
   xmlns:svg="http://www.w3.org/2000/svg">
  <defs
     id="defs1" />
  <sodipodi:namedview
     id="namedview1"
     pagecolor="#ffffff"
     bordercolor="#000000"
     borderopacity="0"
     inkscape:showpageshadow="2"
     inkscape:pageopacity="0.0"
     inkscape:pagecheckerboard="true"
     inkscape:deskcolor="#d1d1d1"
     showgrid="false"
     inkscape:zoom="6.3644828"
     inkscape:cx="130.88259"
     inkscape:cy="91.680663"
     inkscape:window-width="2560"
     inkscape:window-height="1369"
     inkscape:window-x="-8"
     inkscape:window-y="-8"
     inkscape:window-maximized="1"
     inkscape:current-layer="g1">
    <inkscape:page
       x="0"
       y="0"
       inkscape:label="1"
       id="page1"
       width="261.62399"
       height="183.36133"
       margin="0"
       bleed="0" />
  </sodipodi:namedview>
  <g
     id="g1"
     inkscape:groupmode="layer"
     inkscape:label="1">
    <path
       id="path1"
       d="M 4.90965,60.9453 50.32542,34.72444 c 2.71157,-1.56549 4.90967,-5.37272 4.90967,-8.50381 v -52.44126 c 0,-3.13109 -2.1981,-6.93832 -4.90967,-8.50381 L 4.90965,-60.9453 c -2.71156,-1.56549 -7.10774,-1.56549 -9.8193,0 l -45.41577,26.22086 c -2.71157,1.56549 -4.90967,5.37272 -4.90967,8.50381 v 52.44126 c 0,3.13109 2.1981,6.93832 4.90967,8.50381 L -4.90965,60.9453 c 2.71156,1.56549 7.10774,1.56549 9.8193,0 z"
       style="fill:#000000;fill-opacity:1;fill-rule:nonzero;stroke:none"
       transform="matrix(1.3333333,0,0,-1.3333333,80.288,91.681333)" />
    <path
       id="path2"
       d="m 54.422203,-31.734242 c 0.574219,-2.296875 0.914063,-3.667969 0.914063,-6.761719 0,-6.878906 -4.007813,-12.035156 -12.714844,-12.035156 -10.195313,0 -15.585938,7.21875 -17.648438,10.089844 -0.339843,-6.539063 -5.039062,-10.089844 -10.078125,-10.089844 -3.328125,0 -5.9531246,1.605469 -8.1328121,5.964844 -2.0625,4.125 -3.6679688,11.109375 -3.6679688,11.566406 0,0.457031 0.4570313,1.03125 1.265625,1.03125 0.9140625,0 1.03125,-0.117188 1.7109375,-2.742188 1.7226563,-6.761718 3.9023438,-13.523437 8.4843754,-13.523437 2.636718,0 3.550781,1.828125 3.550781,5.273437 0,2.519532 -1.148438,6.984375 -1.945313,10.535157 l -3.210937,12.375 c -0.457031,2.179687 -1.722656,7.335937 -2.296875,9.398437 -0.7968751,2.9765626 -2.0625001,8.3554688 -2.0625001,8.9296876 0,1.60546871 1.265625,2.8710937 2.9765621,2.8710937 1.382813,0 2.988282,-0.69140624 3.902344,-2.4140625 0.222656,-0.5625 1.253906,-4.5820312 1.828125,-6.8671875 l 2.519531,-10.3125003 3.785157,-15.128906 c 0.234375,-0.679687 3.09375,-6.410156 7.335937,-10.078125 2.976563,-2.753906 6.867188,-4.582031 11.34375,-4.582031 4.582031,0 6.1875,3.433594 6.1875,8.015625 0,3.328125 -0.457031,5.15625 -1.03125,7.335937 L 34.148766,19.816539 c -0.117188,0.574219 -0.351563,1.265625 -0.351563,1.957031 0,1.710938 1.382813,2.859375 3.09375,2.859375 1.03125,0 3.445313,-0.457031 4.359375,-3.890625 z m 0,0"
       style="fill:#ff8000;fill-opacity:1;fill-rule:nonzero;stroke:none"
       aria-label="η"
       transform="matrix(1.3333333,0,0,1.3333333,40.648,109.71467)" />
    <text
       id="text2"
       xml:space="preserve"
       transform="matrix(1.3333333,0,-0.26666667,1.3333333,179.46933,107.72133)"><tspan
         id="tspan2"
         style="font-variant:normal;font-weight:normal;font-size:34.8692px;font-family:D-DIN;writing-mode:lr-tb;fill:#000000;fill-opacity:1;fill-rule:nonzero;stroke:none"
         x="0"
         dx="0 0 -2.6849315"
         y="0">ETA</tspan></text>
  </g>
</svg>
